<?xml version="1.0" standalone="no"?>
<!DOCTYPE svg PUBLIC "-//W3C//DTD SVG 20010904//EN"
 "http://www.w3.org/TR/2001/REC-SVG-20010904/DTD/svg10.dtd">
<svg version="1.0" xmlns="http://www.w3.org/2000/svg"
 width="512.000000pt" height="512.000000pt" viewBox="0 0 512.000000 512.000000"
 preserveAspectRatio="xMidYMid meet">
<metadata>
Created by potrace 1.14, written by Peter Selinger 2001-2017
</metadata>
<g transform="translate(0.000000,512.000000) scale(0.100000,-0.100000)"
fill="#000000" stroke="none">
<path d="M1357 4603 c-4 -5 -21 -10 -39 -11 -18 -1 -44 -4 -58 -7 -14 -3 -41
-8 -60 -11 -19 -3 -38 -8 -43 -11 -4 -2 -18 -6 -31 -9 -50 -9 -205 -83 -286
-137 -55 -37 -160 -144 -160 -163 0 -8 -3 -14 -8 -14 -9 0 -39 -67 -63 -142
-15 -48 -18 -92 -18 -274 0 -153 4 -235 14 -278 23 -99 63 -206 77 -206 5 0 8
-6 8 -13 0 -38 150 -199 231 -247 52 -31 135 -69 150 -70 8 0 20 -5 27 -12 7
-7 12 -9 12 -5 0 4 16 1 35 -7 19 -8 61 -18 93 -22 31 -3 64 -8 73 -9 28 -6
110 16 153 41 89 50 183 99 216 112 53 21 181 59 220 66 19 3 51 8 70 11 19 3
70 6 112 7 60 2 74 5 66 15 -6 7 -15 13 -20 13 -5 0 -15 6 -22 13 -7 6 -35 30
-61 52 -59 49 -60 50 -116 114 -58 68 -149 201 -149 218 0 7 -4 13 -10 13 -5
0 -9 3 -8 8 1 4 -9 30 -21 57 -13 28 -24 55 -25 60 -1 6 -5 15 -8 21 -4 6 -9
21 -12 35 -3 13 -13 49 -21 79 -9 30 -14 63 -11 73 2 9 1 17 -3 17 -8 0 -12
52 -13 155 -1 74 10 195 22 235 6 19 13 50 16 69 3 19 10 41 16 48 6 7 8 13 4
13 -3 0 3 22 14 50 11 27 15 52 10 55 -5 3 -11 1 -14 -3 -3 -5 -18 -7 -33 -5
-27 4 -58 4 -115 -1 -16 -1 -28 2 -28 7 0 4 -5 5 -11 2 -17 -11 -69 -12 -69
-1 0 6 -5 5 -12 -2 -7 -7 -17 -8 -30 -1 -12 6 -18 6 -18 -1 0 -12 -22 -9 -31
4 -4 4 -9 4 -12 -1z"/>
<path d="M2060 4602 c0 -4 -14 -7 -31 -6 -27 2 -32 -3 -54 -49 -63 -140 -89
-270 -88 -447 0 -220 51 -414 155 -592 15 -27 26 -48 23 -48 -2 0 5 -10 16
-22 10 -13 37 -48 59 -78 59 -81 126 -146 173 -168 38 -18 84 -32 230 -73 26
-7 47 -18 47 -23 0 -5 3 -7 6 -3 4 3 30 -6 58 -20 28 -15 54 -27 58 -28 4 0
13 -6 20 -12 6 -7 18 -13 24 -13 7 0 19 -6 26 -12 21 -21 111 -74 143 -85 82
-28 172 33 190 129 3 18 7 42 9 53 13 74 19 99 42 170 32 98 130 305 145 305
5 0 7 5 4 10 -3 6 1 13 9 16 9 3 14 9 12 13 -11 18 161 208 280 310 94 80 289
184 439 232 97 32 125 55 120 100 -4 30 -33 69 -51 69 -6 0 -19 9 -29 20 -10
11 -24 20 -31 20 -7 0 -20 7 -28 16 -38 37 -351 164 -406 164 -9 0 -20 3 -23
7 -4 3 -21 8 -39 10 -17 2 -43 6 -57 8 -54 11 -118 18 -168 19 -29 0 -53 4
-53 9 0 4 -10 3 -21 -4 -15 -8 -19 -8 -15 0 5 8 0 8 -18 1 -14 -5 -28 -5 -31
-1 -3 5 -20 6 -38 2 -18 -5 -41 -6 -52 -4 -19 4 -50 4 -107 -1 -16 -1 -28 2
-28 7 0 4 -5 5 -11 2 -16 -11 -69 -12 -69 -2 0 4 -4 6 -9 2 -16 -9 -71 -13
-71 -4 0 5 -12 4 -26 -1 -16 -7 -23 -7 -19 0 4 7 -2 7 -19 0 -14 -5 -28 -5
-31 -1 -3 5 -20 6 -38 2 -18 -5 -41 -6 -52 -4 -25 5 -114 5 -140 0 -11 -2 -32
-1 -47 4 -16 4 -28 4 -28 -1 0 -6 -9 -6 -22 -1 -13 5 -33 5 -45 0 -12 -4 -25
-4 -28 0 -3 5 -20 6 -38 2 -18 -5 -41 -5 -52 -1 -11 4 -31 3 -45 -2 -14 -5
-25 -9 -25 -9 0 0 -12 4 -27 10 -17 6 -29 7 -33 1 -4 -7 -13 -6 -26 0 -10 6
-19 7 -19 2z"/>
<path d="M4187 4598 c-12 -7 6 -58 20 -58 5 0 20 -10 34 -23 15 -12 46 -38 70
-59 24 -20 55 -46 69 -58 14 -12 47 -40 75 -63 27 -23 57 -50 67 -59 10 -10
18 -15 18 -11 0 3 8 -3 18 -15 10 -11 30 -24 44 -27 39 -10 47 15 46 139 -1
107 -1 108 -33 142 -47 49 -136 85 -217 87 -16 0 -28 3 -28 6 0 8 -170 7 -183
-1z"/>
<path d="M4426 3943 c-3 -3 -24 -7 -48 -9 -24 -2 -56 -7 -73 -10 -16 -3 -39
-7 -50 -9 -11 -2 -20 -4 -20 -5 0 -1 -9 -3 -20 -5 -60 -8 -309 -103 -325 -124
-3 -3 -19 -13 -35 -22 -50 -26 -79 -43 -92 -56 -8 -7 -27 -20 -43 -30 -17 -9
-30 -21 -30 -25 0 -4 -7 -8 -16 -8 -8 0 -12 -4 -9 -10 3 -5 2 -10 -4 -10 -19
0 -159 -146 -217 -226 -81 -111 -89 -124 -87 -135 2 -5 -2 -9 -9 -9 -6 0 -9
-3 -5 -6 3 -3 -6 -26 -19 -50 -14 -24 -22 -44 -18 -44 4 0 2 -6 -3 -12 -9 -11
-17 -34 -30 -88 -2 -8 -5 -26 -7 -40 -2 -14 -6 -32 -10 -41 -10 -24 -13 -228
-4 -279 5 -25 11 -60 14 -79 7 -44 54 -182 66 -198 6 -7 7 -13 3 -13 -5 0 -1
-8 8 -17 8 -10 16 -22 17 -28 1 -5 7 -23 14 -40 11 -26 37 -100 41 -115 1 -3
5 -12 8 -20 4 -8 8 -27 11 -42 3 -15 7 -31 9 -35 3 -5 8 -24 11 -43 3 -19 8
-46 11 -60 25 -110 26 -434 1 -555 -9 -44 -19 -93 -22 -109 -3 -16 -10 -40
-15 -52 -12 -33 -3 -50 34 -65 18 -7 34 -15 37 -18 3 -4 37 -21 75 -39 39 -19
82 -40 98 -48 15 -8 27 -12 27 -7 0 4 4 3 8 -2 4 -6 27 -19 52 -29 164 -66
215 -86 295 -113 120 -41 141 -46 200 -48 140 -5 272 72 345 199 16 28 27 53
24 58 -3 4 0 8 6 8 6 0 8 5 5 10 -4 6 -2 16 3 23 6 7 9 78 8 164 0 96 3 153 9
153 7 0 7 3 0 8 -12 8 -14 102 -2 102 5 0 5 5 2 10 -11 18 -11 520 0 520 7 0
7 3 0 8 -12 8 -14 102 -2 102 5 0 5 5 2 10 -11 18 -11 520 0 520 7 0 7 3 0 8
-12 8 -14 102 -2 102 5 0 5 5 2 10 -11 18 -11 520 0 520 7 0 7 3 0 8 -12 8
-14 102 -2 102 5 0 5 5 1 11 -4 6 -6 59 -6 117 0 112 -17 170 -59 200 -10 7
-24 18 -31 25 -8 6 -20 13 -28 15 -54 12 -100 19 -104 15z"/>
<path d="M641 2975 c-50 -28 -50 -32 -51 -467 0 -225 2 -408 4 -408 2 0 23 7
47 16 24 9 49 17 54 19 32 9 75 30 75 37 0 4 5 8 11 8 20 0 104 64 157 119 37
39 72 92 112 173 32 64 56 119 53 122 -4 3 -1 6 5 6 6 0 13 14 17 30 4 17 11
30 16 30 6 0 7 5 4 10 -3 6 -3 16 1 22 11 17 12 48 3 54 -5 2 -6 11 -2 19 3 8
0 15 -6 15 -6 0 -11 6 -11 13 0 30 -51 60 -142 84 -90 24 -141 43 -221 84 -50
25 -96 30 -126 14z"/>
<path d="M2025 2981 c-2 -1 -19 -5 -37 -6 -120 -13 -205 -36 -309 -85 -151
-71 -281 -176 -320 -256 -52 -108 23 -279 176 -398 73 -58 105 -73 105 -50 0
18 81 123 96 123 5 1 19 9 30 19 10 10 24 20 29 21 6 2 15 5 21 8 6 2 11 32
11 71 0 82 10 155 27 196 7 17 14 34 15 38 5 24 55 119 72 136 10 12 19 24 19
27 0 10 100 98 144 127 22 16 39 28 36 29 -23 3 -112 3 -115 0z"/>
<path d="M2225 2936 c-22 -7 -51 -18 -63 -25 -37 -20 -102 -82 -102 -97 0 -8
-4 -14 -9 -14 -13 0 -62 -108 -81 -180 -18 -69 -27 -219 -13 -221 4 -1 24 -2
43 -3 108 -7 220 -53 292 -121 20 -19 39 -35 41 -35 3 0 22 16 42 36 64 62
212 144 229 127 3 -4 6 -2 6 4 0 12 72 26 133 27 20 1 37 4 37 8 0 3 8 5 18 3
9 -2 17 -4 17 -5 0 -1 20 -3 45 -6 25 -2 54 -6 65 -8 28 -4 62 20 70 51 4 18
-1 36 -18 62 -30 46 -197 211 -213 211 -7 0 -14 4 -16 9 -4 12 -134 93 -191
119 -143 66 -248 85 -332 58z"/>
<path d="M1241 2463 c-46 -91 -75 -221 -75 -338 0 -221 67 -353 204 -400 3 -1
12 -5 21 -9 21 -9 131 -15 144 -7 6 3 13 6 18 7 4 1 9 3 12 4 3 1 8 3 13 4 24
6 81 38 104 58 l28 23 -31 35 c-48 53 -74 120 -78 198 -1 6 -8 12 -16 12 -8 0
-15 5 -15 12 0 6 -3 9 -6 5 -19 -19 -181 139 -225 219 -32 59 -69 161 -72 196
-2 25 -4 23 -26 -19z"/>
<path d="M1851 2286 c-152 -65 -223 -228 -161 -363 11 -24 25 -43 30 -43 6 0
10 -7 10 -15 0 -9 11 -21 25 -27 14 -6 25 -16 25 -21 0 -6 3 -8 6 -4 4 3 18 0
33 -7 21 -11 109 -15 119 -6 1 1 5 3 10 5 67 19 114 81 114 153 0 39 -20 92
-35 92 -6 0 -7 3 -4 6 4 4 -9 15 -27 25 -79 42 -174 -11 -163 -93 3 -23 14
-46 29 -59 l23 -20 -27 16 c-40 25 -51 89 -24 132 40 62 120 78 184 37 29 -19
58 -54 54 -66 -1 -5 2 -8 6 -8 9 0 9 -2 15 -60 8 -89 -69 -189 -160 -207 -53
-10 -58 -10 -90 -2 -28 6 -39 2 -75 -26 -75 -57 -145 -84 -253 -98 -31 -4
-124 6 -166 18 -38 10 78 -96 147 -137 59 -34 132 -66 169 -74 111 -25 236
-22 309 6 16 6 31 8 34 6 2 -3 11 2 19 10 8 8 18 12 23 9 4 -3 13 2 20 10 7 8
16 12 21 9 5 -3 9 0 9 5 0 6 4 11 10 11 23 0 127 100 162 155 24 39 55 111 65
150 8 32 9 189 2 205 -16 34 -34 86 -31 93 1 4 -2 7 -8 7 -5 0 -10 4 -10 10 0
30 -98 122 -167 156 -80 39 -194 43 -272 10z"/>
<path d="M2678 2300 c-84 -21 -261 -117 -273 -147 -2 -8 5 -36 16 -65 11 -28
17 -53 14 -56 -2 -3 0 -11 7 -19 12 -15 16 -181 4 -228 -4 -16 -8 -36 -8 -42
-1 -7 -5 -13 -10 -13 -5 0 -7 -4 -3 -9 3 -5 1 -12 -5 -16 -6 -4 -7 -11 -4 -17
4 -6 2 -13 -3 -17 -6 -4 -5 -18 3 -38 11 -25 23 -35 56 -44 65 -18 198 -81
192 -90 -3 -5 1 -9 8 -9 7 0 42 -27 78 -60 100 -93 102 -94 144 -76 19 8 59
39 88 68 52 54 98 106 97 111 0 1 11 27 24 57 34 77 45 135 41 226 -5 117 -8
144 -17 144 -5 0 -5 5 -2 11 6 9 0 32 -25 94 -5 11 -14 35 -22 53 -7 17 -16
32 -20 32 -5 0 -8 6 -8 13 0 21 -90 98 -140 120 -51 23 -173 32 -232 17z"/>
<path d="M882 2110 c-18 -9 -30 -19 -26 -23 4 -4 2 -7 -4 -7 -36 0 -171 -143
-209 -220 -50 -103 -54 -148 -51 -540 l3 -355 53 -1 c44 0 64 6 114 35 119 71
261 229 299 336 7 19 17 35 22 35 4 0 5 5 2 10 -4 6 -2 16 3 23 12 16 29 87
27 115 -1 12 2 22 7 22 5 0 6 5 2 12 -4 7 -9 35 -11 62 -2 27 -8 55 -14 63 -6
7 -9 13 -5 13 3 0 -1 17 -10 38 -9 20 -29 73 -44 117 -27 74 -33 99 -46 201
-8 68 -53 94 -112 64z"/>
<path d="M2310 1493 c-14 -9 -39 -30 -57 -46 -17 -16 -35 -29 -40 -30 -4 0
-17 -10 -28 -20 -38 -37 -187 -98 -273 -112 -50 -8 -105 -51 -120 -93 -12 -35
-6 -110 9 -122 14 -11 28 -131 27 -235 0 -158 -2 -151 38 -176 32 -20 44 -21
117 -15 87 7 199 32 284 64 58 22 166 81 171 94 2 4 9 8 14 8 6 0 18 7 27 15
52 47 100 96 128 128 43 52 104 179 106 222 1 19 5 35 8 35 9 0 2 62 -10 93
-6 15 -15 27 -21 27 -6 0 -8 5 -5 10 3 6 3 10 -2 10 -4 0 -22 14 -40 30 -18
17 -34 30 -37 30 -3 0 -25 14 -49 30 -25 17 -50 30 -56 30 -6 0 -20 5 -31 10
-45 23 -57 26 -95 28 -25 2 -49 -4 -65 -15z"/>
<path d="M1232 1394 c-20 -20 -36 -38 -34 -40 3 -6 0 -26 -12 -66 -5 -16 -13
-28 -19 -28 -6 0 -7 -3 -4 -7 4 -3 2 -12 -4 -20 -6 -7 -8 -13 -3 -13 5 0 5 -4
-1 -8 -5 -4 -23 -34 -40 -67 -20 -39 -62 -92 -122 -154 -51 -51 -94 -100 -94
-107 -5 -50 -3 -62 10 -84 18 -29 63 -71 70 -65 2 3 18 -4 35 -14 48 -29 201
-80 286 -95 136 -23 234 -10 307 43 40 29 82 98 87 143 1 13 5 28 8 33 4 9 3
180 -2 180 -1 0 -7 29 -14 75 -2 14 -10 45 -17 70 -15 54 -16 58 -18 68 -3 21
-40 51 -86 71 -28 12 -71 33 -98 46 -26 14 -54 25 -62 25 -8 0 -15 4 -15 10 0
13 -66 40 -97 40 -14 0 -39 -15 -61 -36z"/>
<path d="M3111 800 c-18 -27 -42 -58 -52 -69 -11 -12 -18 -21 -15 -21 5 0 -34
-46 -96 -113 -44 -47 -47 -60 -15 -56 12 2 28 -1 36 -5 8 -5 12 -5 9 0 -4 5
32 9 83 9 49 0 89 -3 89 -6 0 -3 7 -6 15 -6 8 0 12 3 10 6 -2 4 19 6 46 6 27
0 49 -3 49 -8 0 -4 6 -5 12 0 17 10 49 10 71 0 9 -4 17 -4 17 0 0 4 59 8 130
8 72 0 130 -3 130 -6 0 -3 7 -6 15 -6 8 0 12 3 10 6 -2 4 19 6 46 6 27 0 49
-3 49 -8 0 -4 5 -5 12 -1 14 9 108 12 108 4 0 -4 7 -7 15 -7 8 0 12 3 10 7 -6
10 90 6 97 -5 5 -6 8 -5 8 3 0 7 5 10 11 7 16 -10 59 4 59 19 0 9 -26 20 -77
30 -43 9 -134 30 -203 47 -183 44 -165 40 -230 59 -25 8 -48 14 -52 16 -5 1
-9 2 -10 4 -3 1 -11 4 -50 13 -7 2 -22 8 -33 14 -11 5 -26 8 -32 6 -7 -3 -13
0 -13 5 0 9 -55 26 -72 23 -5 0 -8 4 -8 11 0 6 -3 9 -6 6 -3 -4 -36 6 -73 22
l-68 27 -32 -47z"/>
</g>
</svg>
